# xmcd
# 
# Track frame offsets:
#     150
#     12207
#     23909
#     35855
#     49811
#     61628
#     78861
#     95321
#     113909
#     124650
#     137265
#     155543
#     169836
#     182290
#     194978
#     212166
#     223896
#     237730
#     250763
#     261298
#     272634
#     287147
#     311430
#     324985
# 
# Disc length: 4506
# 
# Revision: 0
# Processed by: cddbd v1.5.1PL2 Copyright (c) Steve Scherf et al.
# Submitted via: BonkEnc v1.0beta4
# 
DISCID=5a119818
DTITLE=Johnny Cash - The Man In Black
DYEAR=1994
DGENRE=Country
TTITLE0=Ring Of Fire
TTITLE1=I Walk The Line
TTITLE2=Get Rhythm
TTITLE3=It Ain't Me Babe
TTITLE4=I Still Miss Someone
TTITLE5=(Ghost) Riders In The Sky
TTITLE6=The Baron
TTITLE7=Sunday Morning Coming Down
TTITLE8=Daddy Sang Bass
TTITLE9=Jackson (with June Carter)
TTITLE10=One Piece At A Time
TTITLE11=Orange Blossom Special
TTITLE12=Folsom Prison Blues (Live)
TTITLE13=San Quentin (Live)
TTITLE14=A Boy Named Sue (Live)
TTITLE15=A Thing Called Love
TTITLE16=Don't Take Your Guns To Town
TTITLE17=Wanted Man
TTITLE18=Big River
TTITLE19=Without Love
TTITLE20=No Expectations
TTITLE21=Highway Patrolman
TTITLE22=Singin' in Vietnam Talkin' Blues
TTITLE23=Man in Black
EXTD=
EXTT0=
EXTT1=
EXTT2=
EXTT3=
EXTT4=
EXTT5=
EXTT6=
EXTT7=
EXTT8=
EXTT9=
EXTT10=
EXTT11=
EXTT12=
EXTT13=
EXTT14=
EXTT15=
EXTT16=
EXTT17=
EXTT18=
EXTT19=
EXTT20=
EXTT21=
EXTT22=
EXTT23=
PLAYORDER=
